# xmcd
#
# Track frame offsets:
#	150
#	23251
#	44034
#	66057
#	100960
#	123783
#	142381
#	168524
#	197687
#
# Disc length: 3005 seconds
#
# Revision: 0
# Processed by: cddbd v1.5.1PL2 Copyright (c) Steve Scherf et al.
# Submitted via: EasyCDDAExtractor 8.0.2.1
#
DISCID=7c0bbb09
DTITLE=Saxon - Sweden Rock Festival Karlshamn 13-06-97 Disc 2
DYEAR=1997
DGENRE=Hard Rock
TTITLE0=Heavy Metal Thunder - Battle Cry
TTITLE1=Strong Arm Of The Law
TTITLE2=Princess Of The Night
TTITLE3=Wheels Of Steel
TTITLE4=You've Got Another Thing Coming
TTITLE5=All Hell Breaking Loose
TTITLE6=Denim and Leather
TTITLE7=Power and Glory
TTITLE8=Crusader
EXTD=
EXTT0=
EXTT1=
EXTT2=
EXTT3=
EXTT4=
EXTT5=
EXTT6=
EXTT7=
EXTT8=
PLAYORDER=
